<svg xmlns="http://www.w3.org/2000/svg" viewBox="0 0 127 127" role="img" aria-label="Slack">
  <path fill="#E01E5A" d="M27.2 80c0 7.5-6.1 13.6-13.6 13.6S0 87.5 0 80s6.1-13.6 13.6-13.6h13.6V80Zm6.8 0c0-7.5 6.1-13.6 13.6-13.6S61.2 72.5 61.2 80v34c0 7.5-6.1 13.6-13.6 13.6S34 121.5 34 114V80Z"/>
  <path fill="#36C5F0" d="M47.6 27.2C40.1 27.2 34 21.1 34 13.6S40.1 0 47.6 0s13.6 6.1 13.6 13.6v13.6H47.6Zm0 6.8c7.5 0 13.6 6.1 13.6 13.6s-6.1 13.6-13.6 13.6h-34C6.1 61.2 0 55.1 0 47.6S6.1 34 13.6 34h34Z"/>
  <path fill="#2EB67D" d="M100 47.6c0-7.5 6.1-13.6 13.6-13.6s13.6 6.1 13.6 13.6-6.1 13.6-13.6 13.6H100V47.6Zm-6.8 0c0 7.5-6.1 13.6-13.6 13.6S66 55.1 66 47.6v-34C66 6.1 72.1 0 79.6 0s13.6 6.1 13.6 13.6v34Z"/>
  <path fill="#ECB22E" d="M79.6 100c7.5 0 13.6 6.1 13.6 13.6s-6.1 13.6-13.6 13.6S66 121.1 66 113.6V100h13.6Zm0-6.8c-7.5 0-13.6-6.1-13.6-13.6S72.1 66 79.6 66h34c7.5 0 13.6 6.1 13.6 13.6s-6.1 13.6-13.6 13.6h-34Z"/>
</svg>
